<?xml version="1.0" standalone="no"?>
<!DOCTYPE svg PUBLIC "-//W3C//DTD SVG 20010904//EN"
 "http://www.w3.org/TR/2001/REC-SVG-20010904/DTD/svg10.dtd">
<svg version="1.0" xmlns="http://www.w3.org/2000/svg"
 width="512.000000pt" height="512.000000pt" viewBox="0 0 512.000000 512.000000"
 preserveAspectRatio="xMidYMid meet">

<g transform="translate(0.000000,512.000000) scale(0.100000,-0.100000)"
fill="#000000" stroke="none">
<path d="M2378 5109 c-821 -52 -1592 -529 -2019 -1251 -165 -278 -260 -543
-326 -905 -24 -133 -27 -173 -27 -390 -1 -133 2 -244 6 -248 30 -30 1306 -155
1583 -155 l51 0 32 -78 c117 -287 384 -503 701 -569 102 -21 328 -13 426 14
290 82 529 290 636 554 l31 75 227 13 c259 14 603 42 871 72 208 22 532 68
539 75 11 11 6 503 -5 514 -9 9 -37 8 -109 -3 -69 -10 -98 -11 -100 -3 -2 6
-11 61 -20 121 -56 375 -186 710 -401 1035 -97 146 -186 253 -328 395 -399
397 -897 643 -1456 719 -158 22 -178 23 -312 15z m356 -2267 c132 -62 224
-183 248 -326 29 -178 -71 -365 -241 -449 -62 -30 -71 -32 -181 -32 -109 0
-118 2 -181 32 -126 62 -215 180 -241 321 -31 167 64 357 221 441 79 42 121
51 223 47 71 -3 98 -9 152 -34z"/>
</g>
</svg>
